# xmcd CD database file
#
# Track frame offsets:
#	150
#	18802
#	35792
#	55042
#	66548
#	83509
#	99267
#	117898
#	127462
#	143526
#	157818
#
# Disc length: 2293 seconds
#
# Revision: 0
# Processed by: cddbd v1.5.2PL0 Copyright (c) Steve Scherf et al.
# Submitted via: CDex 1.70beta2
#
DISCID=8a08f30b
DTITLE=Duo EKG - Bratrstvo Zalomeného palce
DYEAR=1900
DGENRE=Country
TTITLE0=Hobo
TTITLE1=Loučení s létem
TTITLE2=Honákův den
TTITLE3=Zlatá horečka
TTITLE4=Starý smějící se kovboj
TTITLE5=Lekce
TTITLE6=Kolébky sen
TTITLE7=Dvacítka
TTITLE8=Moje nejmilejší
TTITLE9=Casino swing
TTITLE10=Starý hobo
EXTD=
EXTT0=
EXTT1=
EXTT2=
EXTT3=
EXTT4=
EXTT5=
EXTT6=
EXTT7=
EXTT8=
EXTT9=
EXTT10=
PLAYORDER=
